<?xml version="1.0" encoding="iso-8859-1"?>
<!-- Generator: Adobe Illustrator 19.0.0, SVG Export Plug-In . SVG Version: 6.00 Build 0)  -->
<svg version="1.1" id="Capa_1" xmlns="http://www.w3.org/2000/svg" xmlns:xlink="http://www.w3.org/1999/xlink" x="0px" y="0px"
	 viewBox="0 0 437.7 437.7" style="enable-background:new 0 0 437.7 437.7;" xml:space="preserve">
<g>
	<ellipse style="fill:#ED664C;" cx="347.7" cy="271.05" rx="80" ry="80"/>
	<polygon style="fill:#ED664C;" points="343.7,82.15 343.7,85.05 213.5,217.65 213.5,360.65 140.5,397.05 140.5,217.65 10.3,85.05 
		10.3,82.15 	"/>
</g>
<rect x="10.3" y="40.25" style="fill:#FDC75B;" width="333.4" height="41.9"/>
<path d="M131,397.05c0,3.5,1.6,6.7,4.5,8.5c1.6,1,3.3,1.5,5.1,1.5c1.5,0,3-0.3,4.4-1.1l73.2-36.5c3.4-1.7,5.7-5.2,5.7-8.9v-138.8
	l127.2-129.6c1.8-1.9,2.8-4.4,2.8-7v-44.9c0-5.5-4.8-9.6-10.3-9.6H10.3c-5.5,0-10.3,4-10.3,9.6v44.9c0,2.6,1.4,5.1,3.2,7L131,221.75
	V397.05z M20,50.65h314v21H20V50.65z M31.2,91.65h291.6l-116.2,118.8c-1.8,1.9-2.6,4.6-2.6,7.2v136.8l-53,26.5v-163.3
	c0-2.6-1.3-5.4-3.1-7.2L31.2,91.65z"/>
<path d="M347.7,181.05c-24.1,0-46.7,9.4-63.7,26.4c-35.1,35.1-35.1,92.2,0,127.3c17,17,39.6,26.4,63.7,26.4s46.7-9.4,63.6-26.4
	c17-17,26.4-39.6,26.4-63.6s-9.4-46.7-26.4-63.6C394.3,190.35,371.7,181.05,347.7,181.05z M397.2,320.55
	c-13.2,13.2-30.8,20.5-49.5,20.5s-36.3-7.3-49.5-20.5c-27.3-27.3-27.3-71.7,0-99l0,0c13.2-13.2,30.8-20.5,49.5-20.5
	s36.3,7.3,49.5,20.5c13.2,13.2,20.5,30.8,20.5,49.5S410.4,307.35,397.2,320.55z"/>
<path d="M388.1,230.65c-3.9-3.9-10.2-3.9-14.1,0l-26.2,26.2l-26.4-26.2c-3.9-3.9-10.2-3.9-14.1,0s-3.9,10.2,0,14.1l26.3,26.2
	l-26.3,26.2c-3.9,3.9-3.9,10.2,0,14.1c2,2,4.5,2.9,7.1,2.9s5.1-1,7.1-2.9l26.3-26.2l26.2,26.2c2,2,4.5,2.9,7.1,2.9s5.1-1,7.1-2.9
	c3.9-3.9,3.9-10.2,0-14.1l-26.2-26.2l26.2-26.2C392,240.85,392,234.55,388.1,230.65z"/>
<g>
</g>
<g>
</g>
<g>
</g>
<g>
</g>
<g>
</g>
<g>
</g>
<g>
</g>
<g>
</g>
<g>
</g>
<g>
</g>
<g>
</g>
<g>
</g>
<g>
</g>
<g>
</g>
<g>
</g>
</svg>
