<?xml version="1.0" encoding="iso-8859-1"?>
<!-- Generator: Adobe Illustrator 19.0.0, SVG Export Plug-In . SVG Version: 6.00 Build 0)  -->
<svg version="1.1" id="Capa_1" xmlns="http://www.w3.org/2000/svg" xmlns:xlink="http://www.w3.org/1999/xlink" x="0px" y="0px"
	 viewBox="0 0 512 512" style="enable-background:new 0 0 512 512;" xml:space="preserve">
<g>
	<rect x="10" y="73" style="fill:#30AA5B;" width="492" height="258"/>
	<rect x="10" y="182" style="fill:#30AA5B;" width="492" height="258"/>
</g>
<g>
	<path style="fill:#A0E070;" d="M462,73c0,22.091,17.909,40,40,40V73H462z"/>
	<path style="fill:#A0E070;" d="M50.002,73c0,22.091-17.909,40-40,40V73H50.002z"/>
	<path style="fill:#A0E070;" d="M50.002,330.998c0-22.091-17.909-40-40-40v40H50.002z"/>
	<path style="fill:#A0E070;" d="M462,330.998c0-22.091,17.909-40,40-40v40H462z"/>
	<circle style="fill:#A0E070;" cx="256" cy="201.6" r="97.59"/>
</g>
<path d="M502,63H10C4.478,63,0,67.477,0,73v366c0,5.523,4.478,10,10,10h492c5.522,0,10-4.477,10-10V73C512,67.477,507.522,63,502,63
	z M58.998,83h394.004c3.987,19.564,19.433,35.01,38.998,38.997v160.005c-19.564,3.987-35.011,19.433-38.998,38.997H58.998
	C55.011,301.436,39.564,285.99,20,282.003V121.997C39.564,118.01,55.011,102.564,58.998,83z M492,357H20v-16h472V357z M20,302.716
	c8.511,3.018,15.266,9.772,18.284,18.284H20V302.716z M473.716,321c3.018-8.511,9.773-15.265,18.284-18.284V321H473.716z M20,377
	h472v16H20V377z M492,101.284c-8.511-3.018-15.266-9.772-18.284-18.284H492V101.284z M38.284,83
	C35.266,91.511,28.511,98.265,20,101.284V83H38.284z M492,429H20v-16h472V429z"/>
<path d="M174.493,257.22c4.862-2.62,6.68-8.685,4.061-13.547c-18.271-33.908-11.988-76.632,15.278-103.898
	c16.613-16.613,38.702-25.763,62.196-25.763c23.495,0,45.583,9.149,62.196,25.762c34.296,34.296,34.296,90.099,0,124.395
	c-27.266,27.266-69.993,33.548-103.898,15.277c-4.866-2.62-10.928-0.802-13.548,4.06c-2.619,4.862-0.802,10.927,4.06,13.547
	c15.686,8.452,33.498,12.863,51.363,12.863c4.937,0,9.88-0.337,14.78-1.019c23.406-3.257,44.633-13.833,61.386-30.585
	c42.093-42.094,42.093-110.585,0-152.679c-20.391-20.391-47.502-31.62-76.339-31.62c-28.837,0-55.948,11.23-76.339,31.621
	c-16.752,16.752-27.328,37.979-30.586,61.385c-3.149,22.634,1.057,46.124,11.843,66.142
	C163.566,258.022,169.631,259.839,174.493,257.22z"/>
<path d="M179.63,264.223c-3.905,3.905-3.905,10.237,0,14.143c1.953,1.953,4.512,2.929,7.071,2.929s5.118-0.976,7.071-2.929
	l0.063-0.063c3.905-3.905,3.873-10.206-0.032-14.111C189.899,260.287,183.536,260.318,179.63,264.223z"/>
<path d="M234.778,229.933c0-5.523-4.478-10-10-10s-10,4.477-10,10c0,17.931,13.309,33.021,31.222,37.189v4.018
	c0,5.523,4.478,10,10,10s10-4.477,10-10v-4.018c17.912-4.167,31.222-19.257,31.222-37.189s-13.31-33.021-31.222-37.189v-35.646
	c6.672,3.094,11.222,9.177,11.222,16.164c0,5.523,4.478,10,10,10s10-4.477,10-10c0-17.931-13.309-33.021-31.222-37.189v-2.933
	c0-5.523-4.478-10-10-10s-10,4.477-10,10v2.933c-17.912,4.167-31.222,19.257-31.222,37.189s13.309,33.021,31.222,37.189v35.646
	C239.328,243.003,234.778,236.921,234.778,229.933z M277.222,229.933c0,6.987-4.55,13.07-11.222,16.164v-32.328
	C272.672,216.863,277.222,222.946,277.222,229.933z M234.778,173.262c0-6.987,4.55-13.07,11.222-16.164v32.328
	C239.328,186.333,234.778,180.25,234.778,173.262z"/>
<g>
</g>
<g>
</g>
<g>
</g>
<g>
</g>
<g>
</g>
<g>
</g>
<g>
</g>
<g>
</g>
<g>
</g>
<g>
</g>
<g>
</g>
<g>
</g>
<g>
</g>
<g>
</g>
<g>
</g>
</svg>
